# xmcd
#
# Track frame offsets: 
#        150
#        17837
#        45600
#        72055
#        110705
#
# Disc length: 1749 seconds
#
# Revision: 1
# Processed by: cddbd v1.5.2PL0 Copyright (c) Steve Scherf et al.
# Submitted via: ExactAudioCopyFreeDBPlugin 1.0
#
DISCID=3d06d305
DTITLE=Jennifer Lopez - On the 6 (Bonus Remix CD)
DYEAR=1999
DGENRE=Pop
TTITLE0=If You Had My Love (Dark Child Master Mix)
TTITLE1=If You Had My Love (Metro Remix)
TTITLE2=Waiting for Tonight (Metro Mix)
TTITLE3=Waiting for Tonight (Futureshock Midnight at Mambo Remix)
TTITLE4=Jennifer Lopez feat. Big Pun and Fat Joe - Feelin' So Good (Bad 
TTITLE4=Boy Remix)
EXTD=
EXTT0=
EXTT1=
EXTT2=
EXTT3=
EXTT4=
PLAYORDER=
